<svg xmlns="http://www.w3.org/2000/svg" width="134" height="134" viewBox="0 0 134 134">
  <g id="Groupe_2" data-name="Groupe 2" transform="translate(-141 -461)">
    <path id="Ellipse_5" data-name="Ellipse 5" d="M67,11a56,56,0,1,0,56,56A56.063,56.063,0,0,0,67,11M67,0A67,67,0,1,1,0,67,67,67,0,0,1,67,0Z" transform="translate(141 461)" fill="#fff"/>
    <path id="Tracé_1" data-name="Tracé 1" d="M870.62,334.79a3,3,0,0,0-3,3,28.47,28.47,0,1,1-31.47-28.31v3.65A3,3,0,0,0,838,315.9a2.92,2.92,0,0,0,1.15.23,3,3,0,0,0,2.12-.88l6.82-6.81a3,3,0,0,0,0-4.24l-6.82-6.81a3,3,0,0,0-5.12,2.12v3.95a34.47,34.47,0,1,0,37.47,34.33,3,3,0,0,0-3-3Z" transform="translate(-631.15 193.609)" fill="#fff"/>
    <path id="Tracé_1_-_Contour" data-name="Tracé 1 - Contour" d="M839.133,375.77a37.973,37.973,0,0,1-6.483-75.385v-.875a6.5,6.5,0,0,1,11.093-4.6l6.82,6.81a6.51,6.51,0,0,1,0,9.19l-6.823,6.813a6.5,6.5,0,0,1-11.071-4.058,24.975,24.975,0,0,0,6.46,49.093c14.405-.491,24.988-11.453,24.988-24.972a6.5,6.5,0,1,1,13,0,37.783,37.783,0,0,1-36.86,37.963Zm.517-69.1v6.462l5.967-7.167-6.82-6.1.853,3.593Z" transform="translate(-631.15 193.609)" fill="#fff"/>
  </g>
</svg>
